<svg width="664" height="664" viewBox="0 0 664 664" fill="none" xmlns="http://www.w3.org/2000/svg">
<path d="M281.344 382.549L382.637 280.87" stroke="white" stroke-width="23.966" stroke-linecap="round" stroke-linejoin="round"/>
<path d="M357.309 407.989L315.104 450.356C301.671 463.835 283.454 471.407 264.46 471.405C245.466 471.404 227.25 463.829 213.819 450.347C200.389 436.865 192.842 418.58 192.841 399.514C192.839 380.447 200.382 362.161 213.811 348.677L256.016 306.311" stroke="white" stroke-width="23.966" stroke-linecap="round" stroke-linejoin="round"/>
<path d="M407.972 357.134L450.177 314.768C463.606 301.283 471.149 282.997 471.147 263.931C471.145 244.864 463.599 226.579 450.168 213.097C436.738 199.616 418.522 192.041 399.528 192.039C380.534 192.037 362.317 199.609 348.884 213.089L306.679 255.455" stroke="white" stroke-width="23.966" stroke-linecap="round" stroke-linejoin="round"/>
</svg>
