<svg width="41" height="41" viewBox="0 0 41 41" fill="none" xmlns="http://www.w3.org/2000/svg">
<path d="M30.935 13.2548C31.5209 12.6689 31.5209 11.719 30.935 11.1332C30.3491 10.5473 29.3992 10.5473 28.8134 11.1332L30.935 13.2548ZM11.1329 28.8136C10.5471 29.3995 10.5471 30.3494 11.1329 30.9353C11.7188 31.5211 12.6687 31.5211 13.2546 30.9353L11.1329 28.8136ZM12.5484 11.1323C11.9625 10.5464 11.0126 10.5464 10.4267 11.1323C9.84087 11.7181 9.84086 12.668 10.4267 13.2539L12.5484 11.1323ZM28.5787 31.4058C29.1645 31.9917 30.1144 31.9917 30.7003 31.4058C31.2862 30.82 31.2862 29.8701 30.7003 29.2842L28.5787 31.4058ZM28.8134 11.1332L11.1329 28.8136L13.2546 30.9353L30.935 13.2548L28.8134 11.1332ZM10.4267 13.2539L28.5787 31.4058L30.7003 29.2842L12.5484 11.1323L10.4267 13.2539Z" fill="white"/>
</svg>
