<svg width="23" height="22" viewBox="0 0 23 22" fill="none" xmlns="http://www.w3.org/2000/svg">
<path d="M8.66406 13.4088L14.2847 7.78809" stroke="white" stroke-width="1.98721" stroke-linecap="round" stroke-linejoin="round"/>
<path d="M12.8801 14.814L10.5382 17.156C9.79279 17.9011 8.78195 18.3197 7.72799 18.3196C6.67402 18.3195 5.66325 17.9008 4.91799 17.1555C4.17272 16.4102 3.754 15.3995 3.75391 14.3455C3.75382 13.2915 4.17237 12.2807 4.91751 11.5353L7.25946 9.19336" stroke="white" stroke-width="1.98721" stroke-linecap="round" stroke-linejoin="round"/>
<path d="M15.691 12.0032L18.0329 9.66123C18.7781 8.91584 19.1966 7.905 19.1965 6.85103C19.1964 5.79707 18.7777 4.7863 18.0325 4.04103C17.2872 3.29577 16.2764 2.87704 15.2225 2.87695C14.1685 2.87686 13.1577 3.29542 12.4123 4.04055L10.0703 6.3825" stroke="white" stroke-width="1.98721" stroke-linecap="round" stroke-linejoin="round"/>
</svg>
