<svg width="34" height="32" viewBox="0 0 34 32" fill="none" xmlns="http://www.w3.org/2000/svg">
<path d="M2.59244 19.5661C0.98254 17.8578 0.578206 15.9162 1.44833 14.0723C2.31846 12.2283 4.40921 10.596 7.36435 9.45355C10.3195 8.31106 13.9562 7.72904 17.6548 7.80668C21.3533 7.88431 24.885 8.61679 27.6479 9.87931C30.4108 11.1418 32.2341 12.8563 32.8071 14.7305C33.3801 16.6048 32.6673 18.5228 30.7902 20.1579C28.9131 21.7931 25.9879 23.044 22.5129 23.6977C19.0379 24.3513 15.2281 24.3672 11.7328 23.7427" stroke="white" stroke-width="1.2"/>
<path d="M21.8957 4.57485C20.551 2.30927 18.855 1.04634 17.0969 1.00125C15.3387 0.956159 13.6271 2.13169 12.2537 4.32756C10.8804 6.52342 9.93018 9.60375 9.56507 13.0437C9.19996 16.4836 9.44252 20.0704 10.2514 23.1927C11.0603 26.3151 12.3855 28.7799 14.0012 30.1672C15.6169 31.5545 17.4231 31.7784 19.1121 30.8008C20.8011 29.8233 22.2684 27.7046 23.2639 24.806C24.2594 21.9073 24.7216 18.408 24.5717 14.9042" stroke="white" stroke-width="1.2"/>
<path d="M4.22837 18.5995V21.4279H1.39994" stroke="white" stroke-width="0.799999"/>
<path d="M23.665 3.80018L22.933 6.53223L20.2009 5.80018" stroke="white" stroke-width="0.799999"/>
</svg>
