<svg width="25" height="25" viewBox="0 0 25 25" fill="none" xmlns="http://www.w3.org/2000/svg">
<g clip-path="url(#clip0)">
<path d="M23.418 3.58183C22.4604 4.25731 21.4001 4.77394 20.278 5.11183C19.6757 4.41934 18.8753 3.92853 17.985 3.70576C17.0947 3.48299 16.1575 3.53903 15.3 3.86629C14.4426 4.19354 13.7064 4.77623 13.191 5.53555C12.6755 6.29487 12.4057 7.19417 12.418 8.11183V9.11183C10.6606 9.1574 8.91924 8.76765 7.34898 7.97728C5.77871 7.18691 4.42829 6.02047 3.41797 4.58183C3.41797 4.58183 -0.582031 13.5818 8.41797 17.5818C6.3585 18.9798 3.90513 19.6808 1.41797 19.5818C10.418 24.5818 21.418 19.5818 21.418 8.08183C21.417 7.80329 21.3903 7.52543 21.338 7.25183C22.3586 6.24533 23.0788 4.97455 23.418 3.58183V3.58183Z" stroke="white" stroke-width="2" stroke-linecap="round" stroke-linejoin="round"/>
</g>
<defs>
<clipPath id="clip0">
<rect width="24" height="24" fill="white" transform="translate(0.417969 0.582031)"/>
</clipPath>
</defs>
</svg>
