<svg width="595" height="170" viewBox="0 0 595 170" fill="none" xmlns="http://www.w3.org/2000/svg">
<path d="M119.7 75.9205V77.1805C126.9 77.5405 130.14 80.9605 130.14 85.2805C130.14 88.1605 129.42 90.5005 127.98 94.2805L109.8 139.46L91.6203 93.7405C90.3603 90.1405 89.6403 87.6205 89.6403 85.1005C89.6403 80.7805 92.7003 77.5405 100.08 77.1805V75.9205H56.1603V77.1805C61.3803 78.2605 64.8003 82.9405 68.0403 91.0405L72.0003 100.4L56.1603 138.92L38.5203 94.1005C36.9003 90.1405 36.1803 87.4405 36.1803 85.1005C36.1803 80.6005 38.7003 78.2605 44.4603 77.1805V75.9205H0.720337V77.1805C6.84034 78.2605 11.1603 83.1205 15.1203 93.0205L46.0803 168.8H47.1603L74.3403 105.98L101.34 168.8H102.24L133.56 92.8405C137.88 81.8605 141.66 78.8005 146.7 77.1805V75.9205H119.7Z" fill="white"/>
<path d="M184.569 154.94V74.3005L151.449 83.3005V84.3805C160.629 84.3805 163.329 86.3605 163.329 96.6205V154.94C163.329 162.14 159.729 164.48 151.449 165.74V167H196.269V165.74C187.989 164.48 184.569 162.14 184.569 154.94Z" fill="white"/>
<path d="M236.939 169.7C259.079 169.7 272.039 155.84 272.039 138.2C272.039 126.32 265.919 118.94 253.859 113.9L232.979 105.26C224.519 101.84 221.279 96.8005 221.279 91.0405C221.279 84.0205 225.959 78.2605 237.479 78.2605C249.539 78.2605 260.339 84.7405 264.119 104H265.559L270.599 80.2405C263.219 75.7405 252.239 73.2205 242.519 73.2205C218.939 73.2205 207.599 87.0805 207.599 102.02C207.599 111.56 211.739 120.92 224.699 126.32L245.939 135.32C254.579 138.56 258.899 142.7 258.899 149.72C258.899 157.64 253.319 164.12 241.799 164.12C226.679 164.12 214.259 152.06 211.739 134.06L210.299 133.88L205.619 160.52C213.719 166.1 225.959 169.7 236.939 169.7Z" fill="white"/>
<path d="M281.506 167H324.706V165.74C316.966 164.66 314.626 162.5 314.626 155.84V94.8205C317.146 88.5205 322.006 82.9405 331.186 82.9405C341.806 82.9405 347.026 89.7805 347.026 103.1V155.84C347.026 162.5 344.686 164.66 336.946 165.74V167H380.146V165.74C371.866 164.48 368.446 162.14 368.446 154.94V101.3C368.446 84.3805 359.806 73.2205 341.986 73.2205C328.126 73.2205 317.686 81.3205 314.626 92.1205V35.6005L281.506 44.9605V46.2205C290.686 46.2205 293.386 48.5605 293.386 57.9205V154.94C293.386 162.14 289.786 164.48 281.506 165.74V167Z" fill="white"/>
<path d="M430.167 37.4005C411.987 37.4005 400.107 46.7605 400.107 69.4405V75.9205H388.767V78.9805H400.107V154.94C400.107 162.14 396.507 164.48 388.227 165.74V167H436.647V165.74C424.947 164.84 421.347 162.5 421.347 154.94V78.9805H437.727V75.9205H419.547C413.067 71.6005 411.087 65.4805 411.087 58.4605C411.087 51.9805 414.867 42.9805 425.667 42.9805C435.747 42.9805 442.047 50.9005 443.127 61.5205L444.207 61.7005L450.327 42.6205C445.107 39.3805 438.087 37.4005 430.167 37.4005Z" fill="white"/>
<path d="M530.805 152.96V73.7605L498.945 79.3405V80.4205C507.225 80.4205 509.385 82.5805 509.385 92.8405V148.46C506.685 154.4 501.105 158.18 494.445 158.36C484.365 158.72 478.245 151.52 478.245 138.74V73.7605L445.125 79.5205V80.7805C454.485 80.6005 457.005 82.7605 457.005 93.0205V140.36C457.005 160.52 467.265 169.7 483.465 169.7C496.065 169.7 505.785 161.24 509.385 151.16V167H542.505V165.74C534.585 164.66 530.805 162.14 530.805 152.96Z" fill="white"/>
<path d="M582.868 154.94V35.6005L549.748 44.9605V46.2205C558.928 46.2205 561.628 48.5605 561.628 57.9205V154.94C561.628 162.14 558.028 164.48 549.748 165.74V167H594.568V165.74C586.288 164.48 582.868 162.14 582.868 154.94Z" fill="white"/>
<g filter="url(#filter0_d)">
<path d="M171 30V30C172.381 39.8652 180.135 47.6194 190 49V49V49C180.135 50.3806 172.381 58.1348 171 68V68V68C169.619 58.1348 161.865 50.3806 152 49V49V49C161.865 47.6194 169.619 39.8652 171 30V30Z" fill="white"/>
</g>
<defs>
<filter id="filter0_d" x="122.312" y="0.3125" width="97.375" height="97.375" filterUnits="userSpaceOnUse" color-interpolation-filters="sRGB">
<feFlood flood-opacity="0" result="BackgroundImageFix"/>
<feColorMatrix in="SourceAlpha" type="matrix" values="0 0 0 0 0 0 0 0 0 0 0 0 0 0 0 0 0 0 127 0"/>
<feOffset/>
<feGaussianBlur stdDeviation="14.8438"/>
<feColorMatrix type="matrix" values="0 0 0 0 1 0 0 0 0 1 0 0 0 0 1 0 0 0 1 0"/>
<feBlend mode="normal" in2="BackgroundImageFix" result="effect1_dropShadow"/>
<feBlend mode="normal" in="SourceGraphic" in2="effect1_dropShadow" result="shape"/>
</filter>
</defs>
</svg>
