<svg width="54" height="56" viewBox="0 0 54 56" fill="none" xmlns="http://www.w3.org/2000/svg">
<path d="M50.9165 31.041C52.5043 31.041 53.7915 29.7538 53.7915 28.166C53.7915 26.5782 52.5043 25.291 50.9165 25.291L50.9165 31.041ZM2.99984 25.291C1.41202 25.291 0.124836 26.5782 0.124836 28.166C0.124836 29.7538 1.41202 31.041 2.99984 31.041L2.99984 25.291ZM50.9165 25.291L2.99984 25.291L2.99984 31.041L50.9165 31.041L50.9165 25.291Z" fill="white"/>
<path d="M28.875 3.25098C28.875 1.66316 27.5878 0.375977 26 0.375977C24.4122 0.375976 23.125 1.66316 23.125 3.25098L28.875 3.25098ZM23.125 52.4454C23.125 54.0332 24.4122 55.3204 26 55.3204C27.5878 55.3204 28.875 54.0332 28.875 52.4454L23.125 52.4454ZM23.125 3.25098L23.125 52.4454L28.875 52.4454L28.875 3.25098L23.125 3.25098Z" fill="white"/>
</svg>
