<svg width="119" height="124" viewBox="0 0 119 124" fill="none" xmlns="http://www.w3.org/2000/svg">
<path fill-rule="evenodd" clip-rule="evenodd" d="M33.0946 23.4255C33.9221 25.0066 33.3111 26.9592 31.73 27.7867L21.3875 33.1996L32.775 39.058C34.3619 39.8744 34.9865 41.8227 34.1702 43.4096C33.3538 44.9965 31.4055 45.6211 29.8186 44.8047L17.6032 38.5204V53.8274C17.6032 55.612 16.1565 57.0587 14.3719 57.0587C12.5873 57.0587 11.1406 55.612 11.1406 53.8274V33.2242C11.1406 32.0218 11.8083 30.9189 12.8736 30.3613L28.7334 22.0609C30.3145 21.2334 32.2671 21.8444 33.0946 23.4255Z" fill="white"/>
<path fill-rule="evenodd" clip-rule="evenodd" d="M78.8965 20.6053C78.0424 22.1723 76.0798 22.7502 74.5128 21.8961L63.3279 15.7997L63.3279 30.2961C63.3279 32.0807 61.8812 33.5274 60.0966 33.5274C58.312 33.5274 56.8653 32.0807 56.8654 30.2961L56.8653 15.8426L44.6641 22.6022C43.103 23.467 41.1365 22.9026 40.2717 21.3416C39.4068 19.7806 39.9712 17.814 41.5323 16.9492L58.5307 7.53189C59.498 6.99601 60.6721 6.99197 61.6431 7.52119L77.6057 16.2217C79.1726 17.0758 79.7505 19.0384 78.8965 20.6053Z" fill="white"/>
<path fill-rule="evenodd" clip-rule="evenodd" d="M41.1348 103.791C41.9889 102.224 43.9515 101.646 45.5184 102.5L56.7033 108.597L56.7033 94.1004C56.7033 92.3158 58.15 90.8691 59.9346 90.8691C61.7192 90.8691 63.1659 92.3158 63.1659 94.1004L63.1659 108.554L75.3672 101.794C76.9282 100.929 78.8948 101.494 79.7596 103.055C80.6244 104.616 80.06 106.582 78.499 107.447L61.5005 116.865C60.5333 117.4 59.3591 117.405 58.3882 116.875L42.4256 108.175C40.8586 107.321 40.2807 105.358 41.1348 103.791Z" fill="white"/>
<path fill-rule="evenodd" clip-rule="evenodd" d="M87.323 100.419C86.393 98.8963 86.8738 96.9077 88.3969 95.9777L99.269 89.3395L86.7147 82.0912C85.1692 81.199 84.6397 79.2227 85.532 77.6772C86.4243 76.1317 88.4005 75.6022 89.946 76.4945L102.463 83.7213L102.71 69.7749C102.741 67.9905 104.213 66.5697 105.998 66.6012C107.782 66.6328 109.203 68.1048 109.171 69.8891L108.828 89.3189C108.808 90.4245 108.225 91.4433 107.281 92.0196L91.7647 101.493C90.2416 102.423 88.2529 101.943 87.323 100.419Z" fill="white"/>
<path fill-rule="evenodd" clip-rule="evenodd" d="M106.204 55.5413C104.42 55.5852 102.938 54.1744 102.894 52.3904L102.574 39.3406L90.4879 45.4868C88.8972 46.2958 86.9519 45.662 86.1429 44.0713C85.3339 42.4806 85.9677 40.5353 87.5584 39.7264L99.0138 33.9007L87.3583 26.8937C85.8288 25.9742 85.3343 23.9889 86.2538 22.4594C87.1732 20.9299 89.1585 20.4354 90.688 21.3549L107.343 31.3674C108.291 31.9371 108.881 32.9519 108.908 34.0574L109.355 52.2317C109.399 54.0157 107.988 55.4975 106.204 55.5413Z" fill="white"/>
<path fill-rule="evenodd" clip-rule="evenodd" d="M87.323 100.419C86.393 98.8963 86.8738 96.9077 88.3969 95.9777L99.269 89.3395L86.7147 82.0912C85.1692 81.199 84.6397 79.2227 85.532 77.6772C86.4243 76.1317 88.4005 75.6022 89.946 76.4945L102.463 83.7213L102.71 69.7749C102.741 67.9905 104.213 66.5697 105.998 66.6012C107.782 66.6328 109.203 68.1048 109.171 69.8891L108.828 89.3189C108.808 90.4245 108.225 91.4433 107.281 92.0196L91.7647 101.493C90.2416 102.423 88.2529 101.943 87.323 100.419Z" fill="white"/>
<path fill-rule="evenodd" clip-rule="evenodd" d="M13.4226 68.1178C15.2067 68.078 16.6853 69.492 16.7251 71.2762L17.0512 85.8958L29.5934 78.6546C31.1389 77.7623 33.1151 78.2919 34.0074 79.8374C34.8997 81.3829 34.3701 83.3591 32.8247 84.2514L20.8239 91.18L32.0111 96.6301C33.6155 97.4117 34.2824 99.3458 33.5009 100.95C32.7193 102.554 30.7851 103.221 29.1808 102.44L12.5272 94.3268C11.4395 93.7969 10.7389 92.7036 10.7119 91.4939L10.2642 71.4203C10.2244 69.6361 11.6384 68.1576 13.4226 68.1178Z" fill="white"/>
<path fill-rule="evenodd" clip-rule="evenodd" d="M80.4085 46.0977C81.206 47.6942 80.5582 49.6349 78.9616 50.4323L63.5031 58.1534V73.6285C63.5031 75.4131 62.0564 76.8597 60.2718 76.8597C58.4872 76.8597 57.0405 75.4131 57.0405 73.6285V58.1759L41.1727 50.4481C39.5683 49.6668 38.901 47.7327 39.6824 46.1283C40.4638 44.5238 42.3978 43.8566 44.0023 44.638L60.2538 52.5525L76.0739 44.6508C77.6705 43.8534 79.6111 44.5012 80.4085 46.0977Z" fill="white"/>
</svg>
