<svg width="14" height="22" viewBox="0 0 14 22" fill="none" xmlns="http://www.w3.org/2000/svg">
<path d="M13 1C13 0.723858 12.7761 0.5 12.5 0.5L9.5 0.5C8.04131 0.5 6.64236 1.07946 5.61091 2.11091C4.57946 3.14236 4 4.54131 4 6L4 8.5H1.5C1.22386 8.5 1 8.72386 1 9L1 13C1 13.2761 1.22386 13.5 1.5 13.5H4L4 21C4 21.2761 4.22386 21.5 4.5 21.5H8.5C8.77614 21.5 9 21.2761 9 21L9 13.5H11.5C11.7294 13.5 11.9294 13.3439 11.9851 13.1213L12.9851 9.12127C13.0224 8.9719 12.9889 8.81365 12.8941 8.69229C12.7993 8.57094 12.654 8.5 12.5 8.5L9 8.5V6C9 5.86739 9.05268 5.74022 9.14645 5.64645C9.24022 5.55268 9.36739 5.5 9.5 5.5L12.5 5.5C12.7761 5.5 13 5.27614 13 5V1Z" stroke="white" stroke-width="2" stroke-linecap="round" stroke-linejoin="round"/>
</svg>
