<svg width="20" height="20" viewBox="0 0 20 20" fill="none" xmlns="http://www.w3.org/2000/svg">
<path fill-rule="evenodd" clip-rule="evenodd" d="M5.27572 0.551758L14.7241 0.551758C17.3332 0.551758 19.4483 2.66686 19.4483 5.27596L19.4483 14.7244C19.4483 17.3335 17.3332 19.4486 14.7241 19.4486L5.27572 19.4486C2.66661 19.4486 0.551514 17.3335 0.551514 14.7244L0.551514 5.27596C0.551514 2.66686 2.66661 0.551758 5.27572 0.551758ZM14.6131 9.50203C14.752 10.4383 14.592 11.3945 14.1561 12.2347C13.7202 13.0748 13.0304 13.7561 12.185 14.1817C11.3395 14.6072 10.3814 14.7553 9.44689 14.605C8.5124 14.4546 7.64911 14.0134 6.97983 13.3441C6.31054 12.6748 5.86933 11.8115 5.71896 10.877C5.56859 9.94253 5.71671 8.98442 6.14225 8.13896C6.56779 7.2935 7.24909 6.60375 8.08924 6.16781C8.92939 5.73187 9.8856 5.57195 10.8219 5.71079C11.7769 5.85241 12.6611 6.29743 13.3438 6.98013C14.0265 7.66283 14.4715 8.547 14.6131 9.50203ZM16.4932 4.85296C16.6385 4.57291 16.6919 4.25418 16.6456 3.94208C16.5984 3.62374 16.45 3.32902 16.2225 3.10145C15.9949 2.87388 15.7002 2.72554 15.3818 2.67834C15.0697 2.63206 14.751 2.68536 14.4709 2.83068C14.1909 2.97599 13.9638 3.20591 13.822 3.48773C13.6801 3.76954 13.6307 4.08892 13.6809 4.40041C13.731 4.71191 13.878 4.99967 14.1011 5.22277C14.3242 5.44586 14.612 5.59293 14.9235 5.64306C15.235 5.69318 15.5544 5.64381 15.8362 5.50196C16.118 5.36011 16.3479 5.13301 16.4932 4.85296Z" fill="white"/>
</svg>
