<svg width="23" height="22" viewBox="0 0 23 22" fill="none" xmlns="http://www.w3.org/2000/svg">
<path d="M5.20068 8V1H17.2007V8" stroke="white" stroke-width="2" stroke-linecap="round" stroke-linejoin="round"/>
<path d="M5.20068 17H3.20068C2.67025 17 2.16154 16.7893 1.78647 16.4142C1.4114 16.0391 1.20068 15.5304 1.20068 15V10C1.20068 9.46957 1.4114 8.96086 1.78647 8.58579C2.16154 8.21071 2.67025 8 3.20068 8H19.2007C19.7311 8 20.2398 8.21071 20.6149 8.58579C20.99 8.96086 21.2007 9.46957 21.2007 10V15C21.2007 15.5304 20.99 16.0391 20.6149 16.4142C20.2398 16.7893 19.7311 17 19.2007 17H17.2007" stroke="white" stroke-width="2" stroke-linecap="round" stroke-linejoin="round"/>
<path d="M17.2007 13H5.20068V21H17.2007V13Z" stroke="white" stroke-width="2" stroke-linecap="round" stroke-linejoin="round"/>
</svg>
