<svg width="20" height="20" viewBox="0 0 20 20" fill="none" xmlns="http://www.w3.org/2000/svg">
<g clip-path="url(#clip0)">
<path d="M20.0001 1.85289C19.1296 2.46697 18.1657 2.93663 17.1456 3.24381C16.598 2.61427 15.8704 2.16807 15.061 1.96555C14.2517 1.76304 13.3996 1.81398 12.6201 2.11149C11.8407 2.409 11.1714 2.93872 10.7028 3.62901C10.2342 4.3193 9.98888 5.13685 10.0001 5.9711V6.88019C8.40244 6.92162 6.81938 6.5673 5.39186 5.84878C3.96434 5.13026 2.73667 4.06985 1.81819 2.76199C1.81819 2.76199 -1.81819 10.9439 6.36367 14.5802C4.49142 15.8511 2.26107 16.4884 0 16.3984C8.18187 20.9439 18.1819 16.3984 18.1819 5.94383C18.1811 5.6906 18.1567 5.438 18.1092 5.18928C19.037 4.27426 19.6918 3.119 20.0001 1.85289Z" fill="white"/>
</g>
<defs>
<clipPath id="clip0">
<rect width="20" height="20" fill="white"/>
</clipPath>
</defs>
</svg>
