<svg width="664" height="664" viewBox="0 0 664 664" fill="none" xmlns="http://www.w3.org/2000/svg">
<path fill-rule="evenodd" clip-rule="evenodd" d="M464.792 263.887C464.777 263.465 464.758 263.043 464.735 262.623C485.84 250 495.325 235.756 497 229.352C487.125 235.125 472.486 238.385 460.95 239.821C480.138 224.39 487.573 208.953 488.347 202.375C476.229 211.93 456.346 216.759 445.432 218.388C432.84 205.339 415.17 197.223 395.605 197.223C357.368 197.223 326.371 228.22 326.371 266.457C326.371 270.947 326.798 275.337 327.614 279.588C263.916 279.62 210.48 234.444 190.801 210.425C168.646 253.447 191.766 287.066 210.766 299.947L210.977 300.128C194.28 298.529 184.272 293.259 180.817 290.287C182.053 333.244 208.203 352.77 234.787 359.398C225.388 361.077 214.027 360.575 204.325 359.521C217.693 397.138 250.77 406.442 267.046 407.427C249.654 417.693 226.458 429.176 208.833 432.297C184.102 436.677 171.586 436.054 167.937 434.23C187.794 448.398 242.516 474.031 302.541 463.211C362.565 452.391 402.904 417.699 415.57 401.706C432.315 384.853 465.612 333.695 464.839 263.881L464.792 263.887Z" fill="white"/>
</svg>
