<svg width="24" height="25" viewBox="0 0 24 25" fill="none" xmlns="http://www.w3.org/2000/svg">
<path d="M23 3.99004C22.0424 4.66551 20.9821 5.18215 19.86 5.52004C19.2577 4.82755 18.4573 4.33673 17.567 4.11396C16.6767 3.8912 15.7395 3.94723 14.8821 4.27449C14.0247 4.60175 13.2884 5.18444 12.773 5.94375C12.2575 6.70307 11.9877 7.60237 12 8.52004V9.52004C10.2426 9.5656 8.50127 9.17585 6.93101 8.38548C5.36074 7.59512 4.01032 6.42867 3 4.99004C3 4.99004 -1 13.99 8 17.99C5.94053 19.388 3.48716 20.089 1 19.99C10 24.99 21 19.99 21 8.49004C20.9991 8.21149 20.9723 7.93363 20.92 7.66004C21.9406 6.65353 22.6608 5.38275 23 3.99004V3.99004Z" stroke="white" stroke-width="2" stroke-linecap="round" stroke-linejoin="round"/>
</svg>
